<svg xmlns="http://www.w3.org/2000/svg" xmlns:xlink="http://www.w3.org/1999/xlink" width="500" zoomAndPan="magnify" viewBox="0 0 375 374.999991" height="500" preserveAspectRatio="xMidYMid meet" version="1.0"><defs><g/><clipPath id="aafff0955c"><path d="M 5 98 L 353 98 L 353 173.160156 L 5 173.160156 Z M 5 98 " clip-rule="nonzero"/></clipPath><clipPath id="a9a95e411b"><rect x="0" width="348" y="0" height="76"/></clipPath><clipPath id="674be9138e"><rect x="0" width="364" y="0" height="174"/></clipPath></defs><g transform="matrix(1, 0, 0, 1, 11, 93)"><g clip-path="url(#674be9138e)"><g fill="#000000" fill-opacity="1"><g transform="translate(1.016285, 104.503028)"><g><path d="M 80.046875 -68.359375 L 80.046875 -66.4375 C 77.859375 -66.375 76.203125 -66.128906 75.078125 -65.703125 C 73.953125 -65.285156 73.195312 -64.515625 72.8125 -63.390625 C 72.425781 -62.265625 72.234375 -60.507812 72.234375 -58.125 L 72.234375 -10.234375 C 72.234375 -7.921875 72.425781 -6.179688 72.8125 -5.015625 C 73.195312 -3.859375 73.953125 -3.085938 75.078125 -2.703125 C 76.203125 -2.316406 77.859375 -2.0625 80.046875 -1.9375 L 80.046875 0 C 78.566406 -0.125 76.71875 -0.203125 74.5 -0.234375 C 72.28125 -0.273438 70.039062 -0.296875 67.78125 -0.296875 C 65.269531 -0.296875 62.921875 -0.273438 60.734375 -0.234375 C 58.546875 -0.203125 56.773438 -0.125 55.421875 0 L 55.421875 -1.9375 C 57.609375 -2.0625 59.265625 -2.316406 60.390625 -2.703125 C 61.523438 -3.085938 62.285156 -3.859375 62.671875 -5.015625 C 63.054688 -6.179688 63.25 -7.921875 63.25 -10.234375 L 63.25 -63.34375 L 63.640625 -63.0625 L 39.984375 0.484375 L 38.4375 0.484375 L 14.09375 -62.1875 L 14.09375 -11.203125 C 14.09375 -8.878906 14.300781 -7.054688 14.71875 -5.734375 C 15.144531 -4.421875 15.984375 -3.488281 17.234375 -2.9375 C 18.492188 -2.394531 20.378906 -2.0625 22.890625 -1.9375 L 22.890625 0 C 21.722656 -0.125 20.207031 -0.203125 18.34375 -0.234375 C 16.476562 -0.273438 14.707031 -0.296875 13.03125 -0.296875 C 11.425781 -0.296875 9.800781 -0.273438 8.15625 -0.234375 C 6.519531 -0.203125 5.15625 -0.125 4.0625 0 L 4.0625 -1.9375 C 6.25 -2.0625 7.90625 -2.394531 9.03125 -2.9375 C 10.15625 -3.488281 10.910156 -4.421875 11.296875 -5.734375 C 11.679688 -7.054688 11.875 -8.878906 11.875 -11.203125 L 11.875 -58.125 C 11.875 -60.507812 11.679688 -62.265625 11.296875 -63.390625 C 10.910156 -64.515625 10.15625 -65.285156 9.03125 -65.703125 C 7.90625 -66.128906 6.25 -66.375 4.0625 -66.4375 L 4.0625 -68.359375 C 5.15625 -68.296875 6.519531 -68.234375 8.15625 -68.171875 C 9.800781 -68.109375 11.425781 -68.078125 13.03125 -68.078125 C 14.445312 -68.078125 15.910156 -68.109375 17.421875 -68.171875 C 18.941406 -68.234375 20.21875 -68.296875 21.25 -68.359375 L 43.15625 -10.625 L 41.515625 -9.84375 L 63.25 -68.078125 C 64.019531 -68.078125 64.773438 -68.078125 65.515625 -68.078125 C 66.253906 -68.078125 67.007812 -68.078125 67.78125 -68.078125 C 70.039062 -68.078125 72.28125 -68.109375 74.5 -68.171875 C 76.71875 -68.234375 78.566406 -68.296875 80.046875 -68.359375 Z M 80.046875 -68.359375 "/></g></g></g><g fill="#000000" fill-opacity="1"><g transform="translate(85.119998, 104.503028)"><g><path d="M 52.234375 -68.359375 C 51.984375 -66.109375 51.804688 -63.921875 51.703125 -61.796875 C 51.609375 -59.671875 51.5625 -58.0625 51.5625 -56.96875 C 51.5625 -55.8125 51.59375 -54.703125 51.65625 -53.640625 C 51.71875 -52.578125 51.785156 -51.691406 51.859375 -50.984375 L 49.640625 -50.984375 C 49.242188 -54.785156 48.691406 -57.796875 47.984375 -60.015625 C 47.273438 -62.234375 46.066406 -63.804688 44.359375 -64.734375 C 42.660156 -65.671875 40.101562 -66.140625 36.6875 -66.140625 L 28.671875 -66.140625 C 26.484375 -66.140625 24.828125 -65.960938 23.703125 -65.609375 C 22.578125 -65.253906 21.820312 -64.515625 21.4375 -63.390625 C 21.050781 -62.265625 20.859375 -60.507812 20.859375 -58.125 L 20.859375 -10.234375 C 20.859375 -7.921875 21.050781 -6.179688 21.4375 -5.015625 C 21.820312 -3.859375 22.578125 -3.101562 23.703125 -2.75 C 24.828125 -2.394531 26.484375 -2.21875 28.671875 -2.21875 L 35.734375 -2.21875 C 39.785156 -2.21875 42.859375 -2.765625 44.953125 -3.859375 C 47.046875 -4.953125 48.554688 -6.738281 49.484375 -9.21875 C 50.421875 -11.695312 51.113281 -15.0625 51.5625 -19.3125 L 53.78125 -19.3125 C 53.59375 -17.570312 53.5 -15.253906 53.5 -12.359375 C 53.5 -11.140625 53.546875 -9.382812 53.640625 -7.09375 C 53.734375 -4.8125 53.910156 -2.445312 54.171875 0 C 50.890625 -0.125 47.1875 -0.203125 43.0625 -0.234375 C 38.945312 -0.273438 35.28125 -0.296875 32.0625 -0.296875 C 30.644531 -0.296875 28.820312 -0.296875 26.59375 -0.296875 C 24.375 -0.296875 21.976562 -0.273438 19.40625 -0.234375 C 16.832031 -0.203125 14.222656 -0.171875 11.578125 -0.140625 C 8.941406 -0.109375 6.4375 -0.0625 4.0625 0 L 4.0625 -1.9375 C 6.25 -2.0625 7.90625 -2.316406 9.03125 -2.703125 C 10.15625 -3.085938 10.910156 -3.859375 11.296875 -5.015625 C 11.679688 -6.179688 11.875 -7.921875 11.875 -10.234375 L 11.875 -58.125 C 11.875 -60.507812 11.679688 -62.265625 11.296875 -63.390625 C 10.910156 -64.515625 10.15625 -65.285156 9.03125 -65.703125 C 7.90625 -66.128906 6.25 -66.375 4.0625 -66.4375 L 4.0625 -68.359375 C 6.4375 -68.296875 8.941406 -68.25 11.578125 -68.21875 C 14.222656 -68.1875 16.832031 -68.15625 19.40625 -68.125 C 21.976562 -68.09375 24.375 -68.078125 26.59375 -68.078125 C 28.820312 -68.078125 30.644531 -68.078125 32.0625 -68.078125 C 35.019531 -68.078125 38.378906 -68.09375 42.140625 -68.125 C 45.910156 -68.15625 49.273438 -68.234375 52.234375 -68.359375 Z M 35.625 -35.34375 C 35.625 -35.34375 35.625 -35.019531 35.625 -34.375 C 35.625 -33.726562 35.625 -33.40625 35.625 -33.40625 L 17.953125 -33.40625 C 17.953125 -33.40625 17.953125 -33.726562 17.953125 -34.375 C 17.953125 -35.019531 17.953125 -35.34375 17.953125 -35.34375 Z M 38.4375 -48.09375 C 38.175781 -44.414062 38.0625 -41.613281 38.09375 -39.6875 C 38.125 -37.757812 38.140625 -35.988281 38.140625 -34.375 C 38.140625 -32.769531 38.171875 -31 38.234375 -29.0625 C 38.296875 -27.132812 38.457031 -24.335938 38.71875 -20.671875 L 36.5 -20.671875 C 36.238281 -22.722656 35.929688 -24.726562 35.578125 -26.6875 C 35.222656 -28.65625 34.453125 -30.265625 33.265625 -31.515625 C 32.078125 -32.773438 30.066406 -33.40625 27.234375 -33.40625 L 27.234375 -35.34375 C 29.359375 -35.34375 30.984375 -35.773438 32.109375 -36.640625 C 33.234375 -37.515625 34.050781 -38.625 34.5625 -39.96875 C 35.082031 -41.320312 35.4375 -42.722656 35.625 -44.171875 C 35.820312 -45.617188 36.015625 -46.925781 36.203125 -48.09375 Z M 38.4375 -48.09375 "/></g></g></g><g fill="#000000" fill-opacity="1"><g transform="translate(143.925005, 104.503028)"><g><path d="M 36.3125 -69.71875 C 40.488281 -69.71875 43.863281 -69.085938 46.4375 -67.828125 C 49.019531 -66.578125 51.4375 -65.113281 53.6875 -63.4375 C 54.519531 -62.789062 55.164062 -62.46875 55.625 -62.46875 C 56.84375 -62.46875 57.644531 -64.429688 58.03125 -68.359375 L 60.25 -68.359375 C 60.125 -65.984375 60.03125 -63.085938 59.96875 -59.671875 C 59.90625 -56.265625 59.875 -51.757812 59.875 -46.15625 L 57.640625 -46.15625 C 57.191406 -48.863281 56.644531 -51.472656 56 -53.984375 C 55.363281 -56.492188 54.300781 -58.648438 52.8125 -60.453125 C 50.945312 -62.828125 48.5 -64.675781 45.46875 -66 C 42.445312 -67.320312 39.328125 -67.984375 36.109375 -67.984375 C 32.890625 -67.984375 29.976562 -67.191406 27.375 -65.609375 C 24.769531 -64.035156 22.53125 -61.765625 20.65625 -58.796875 C 18.789062 -55.835938 17.359375 -52.28125 16.359375 -48.125 C 15.367188 -43.976562 14.875 -39.300781 14.875 -34.09375 C 14.875 -22.5 16.738281 -14.015625 20.46875 -8.640625 C 24.207031 -3.265625 30.003906 -0.578125 37.859375 -0.578125 C 40.171875 -0.578125 42.179688 -0.914062 43.890625 -1.59375 C 45.597656 -2.269531 46.929688 -2.929688 47.890625 -3.578125 C 49.117188 -4.410156 49.890625 -5.195312 50.203125 -5.9375 C 50.523438 -6.675781 50.6875 -7.660156 50.6875 -8.890625 L 50.6875 -18.15625 C 50.6875 -20.789062 50.429688 -22.75 49.921875 -24.03125 C 49.410156 -25.320312 48.460938 -26.191406 47.078125 -26.640625 C 45.691406 -27.097656 43.644531 -27.359375 40.9375 -27.421875 L 40.9375 -29.359375 C 42.101562 -29.296875 43.457031 -29.242188 45 -29.203125 C 46.539062 -29.171875 48.164062 -29.140625 49.875 -29.109375 C 51.582031 -29.078125 53.144531 -29.0625 54.5625 -29.0625 C 56.6875 -29.0625 58.597656 -29.09375 60.296875 -29.15625 C 62.003906 -29.226562 63.4375 -29.296875 64.59375 -29.359375 L 64.59375 -27.421875 C 63.175781 -27.359375 62.113281 -27.132812 61.40625 -26.75 C 60.695312 -26.363281 60.226562 -25.585938 60 -24.421875 C 59.78125 -23.265625 59.671875 -21.5 59.671875 -19.125 L 59.671875 0 L 57.75 0 C 57.675781 -1.09375 57.429688 -2.28125 57.015625 -3.5625 C 56.597656 -4.851562 55.972656 -5.5 55.140625 -5.5 C 54.753906 -5.5 54.367188 -5.398438 53.984375 -5.203125 C 53.597656 -5.015625 52.921875 -4.566406 51.953125 -3.859375 C 49.828125 -2.253906 47.570312 -0.984375 45.1875 -0.046875 C 42.8125 0.890625 40.046875 1.359375 36.890625 1.359375 C 30.253906 1.359375 24.570312 -0.0078125 19.84375 -2.75 C 15.113281 -5.488281 11.492188 -9.429688 8.984375 -14.578125 C 6.472656 -19.734375 5.21875 -25.882812 5.21875 -33.03125 C 5.21875 -40.5625 6.566406 -47.0625 9.265625 -52.53125 C 11.972656 -58 15.660156 -62.226562 20.328125 -65.21875 C 24.992188 -68.21875 30.320312 -69.71875 36.3125 -69.71875 Z M 36.3125 -69.71875 "/></g></g></g><g fill="#000000" fill-opacity="1"><g transform="translate(211.806636, 104.503028)"><g><path d="M 56.78125 -68.359375 L 56.78125 -66.4375 C 55.550781 -66.175781 54.328125 -65.382812 53.109375 -64.0625 C 51.890625 -62.75 50.535156 -60.675781 49.046875 -57.84375 L 29.546875 -19.21875 L 27.90625 -19.21875 L 5.3125 -60.9375 C 4.019531 -63.3125 2.9375 -64.804688 2.0625 -65.421875 C 1.195312 -66.035156 0.410156 -66.34375 -0.296875 -66.34375 L -0.296875 -68.359375 C 0.992188 -68.296875 2.332031 -68.234375 3.71875 -68.171875 C 5.101562 -68.109375 6.597656 -68.078125 8.203125 -68.078125 C 10.328125 -68.078125 12.597656 -68.09375 15.015625 -68.125 C 17.429688 -68.15625 19.664062 -68.234375 21.71875 -68.359375 L 21.71875 -66.34375 C 20.113281 -66.34375 18.695312 -66.144531 17.46875 -65.75 C 16.25 -65.363281 15.445312 -64.65625 15.0625 -63.625 C 14.675781 -62.601562 14.96875 -61.160156 15.9375 -59.296875 L 32.25 -28 L 31.484375 -27.421875 L 44.328125 -53.015625 C 46.128906 -56.554688 47.007812 -59.289062 46.96875 -61.21875 C 46.9375 -63.15625 46.179688 -64.492188 44.703125 -65.234375 C 43.222656 -65.972656 41.132812 -66.375 38.4375 -66.4375 L 38.4375 -68.359375 C 40.300781 -68.296875 42.195312 -68.234375 44.125 -68.171875 C 46.0625 -68.109375 47.863281 -68.078125 49.53125 -68.078125 C 51.207031 -68.078125 52.59375 -68.109375 53.6875 -68.171875 C 54.78125 -68.234375 55.8125 -68.296875 56.78125 -68.359375 Z M 33.890625 -29.359375 L 33.890625 -10.234375 C 33.890625 -7.921875 34.082031 -6.179688 34.46875 -5.015625 C 34.851562 -3.859375 35.609375 -3.085938 36.734375 -2.703125 C 37.867188 -2.316406 39.53125 -2.0625 41.71875 -1.9375 L 41.71875 0 C 40.238281 -0.125 38.382812 -0.203125 36.15625 -0.234375 C 33.9375 -0.273438 31.703125 -0.296875 29.453125 -0.296875 C 26.941406 -0.296875 24.59375 -0.273438 22.40625 -0.234375 C 20.21875 -0.203125 18.445312 -0.125 17.09375 0 L 17.09375 -1.9375 C 19.28125 -2.0625 20.9375 -2.316406 22.0625 -2.703125 C 23.1875 -3.085938 23.941406 -3.859375 24.328125 -5.015625 C 24.710938 -6.179688 24.90625 -7.921875 24.90625 -10.234375 L 24.90625 -30.03125 L 30.125 -24.046875 Z M 33.890625 -29.359375 "/></g></g></g><g fill="#000000" fill-opacity="1"><g transform="translate(268.873537, 104.503028)"><g><path d="M 11.40625 -69.71875 C 12.820312 -69.71875 13.976562 -69.425781 14.875 -68.84375 C 15.78125 -68.257812 16.519531 -67.519531 17.09375 -66.625 C 17.800781 -65.59375 18.25 -64.460938 18.4375 -63.234375 C 18.632812 -62.015625 18.734375 -61.019531 18.734375 -60.25 C 18.734375 -57.09375 17.925781 -54.226562 16.3125 -51.65625 C 14.707031 -49.082031 12.203125 -46.988281 8.796875 -45.375 L 7.921875 -47.109375 C 9.921875 -47.953125 11.644531 -49.273438 13.09375 -51.078125 C 14.539062 -52.878906 15.265625 -54.710938 15.265625 -56.578125 C 15.265625 -57.347656 15.164062 -58.023438 14.96875 -58.609375 C 13.9375 -57.765625 12.75 -57.34375 11.40625 -57.34375 C 9.726562 -57.34375 8.273438 -57.890625 7.046875 -58.984375 C 5.828125 -60.085938 5.21875 -61.601562 5.21875 -63.53125 C 5.21875 -65.332031 5.828125 -66.8125 7.046875 -67.96875 C 8.273438 -69.132812 9.726562 -69.71875 11.40625 -69.71875 Z M 11.40625 -69.71875 "/></g></g></g><g fill="#000000" fill-opacity="1"><g transform="translate(292.530733, 104.503028)"><g><path d="M 24.71875 -69.421875 C 27.9375 -69.421875 30.378906 -69.050781 32.046875 -68.3125 C 33.722656 -67.570312 35.207031 -66.753906 36.5 -65.859375 C 37.269531 -65.398438 37.894531 -65.054688 38.375 -64.828125 C 38.863281 -64.609375 39.332031 -64.5 39.78125 -64.5 C 40.425781 -64.5 40.894531 -64.851562 41.1875 -65.5625 C 41.476562 -66.269531 41.71875 -67.332031 41.90625 -68.75 L 44.125 -68.75 C 44.0625 -67.65625 43.984375 -66.351562 43.890625 -64.84375 C 43.796875 -63.332031 43.726562 -61.335938 43.6875 -58.859375 C 43.65625 -56.378906 43.640625 -53.109375 43.640625 -49.046875 L 41.421875 -49.046875 C 41.234375 -52.140625 40.554688 -55.101562 39.390625 -57.9375 C 38.234375 -60.769531 36.546875 -63.085938 34.328125 -64.890625 C 32.109375 -66.691406 29.195312 -67.59375 25.59375 -67.59375 C 22.175781 -67.59375 19.359375 -66.5625 17.140625 -64.5 C 14.921875 -62.4375 13.8125 -59.734375 13.8125 -56.390625 C 13.8125 -53.492188 14.550781 -51.0625 16.03125 -49.09375 C 17.507812 -47.132812 19.488281 -45.363281 21.96875 -43.78125 C 24.445312 -42.207031 27.132812 -40.519531 30.03125 -38.71875 C 33.375 -36.65625 36.347656 -34.609375 38.953125 -32.578125 C 41.566406 -30.554688 43.628906 -28.320312 45.140625 -25.875 C 46.648438 -23.425781 47.40625 -20.46875 47.40625 -17 C 47.40625 -12.875 46.472656 -9.457031 44.609375 -6.75 C 42.742188 -4.050781 40.265625 -2.023438 37.171875 -0.671875 C 34.085938 0.679688 30.675781 1.359375 26.9375 1.359375 C 23.53125 1.359375 20.828125 0.96875 18.828125 0.1875 C 16.835938 -0.582031 15.132812 -1.382812 13.71875 -2.21875 C 12.300781 -3.125 11.203125 -3.578125 10.421875 -3.578125 C 9.785156 -3.578125 9.320312 -3.222656 9.03125 -2.515625 C 8.738281 -1.804688 8.492188 -0.742188 8.296875 0.671875 L 6.078125 0.671875 C 6.210938 -0.679688 6.296875 -2.273438 6.328125 -4.109375 C 6.359375 -5.941406 6.390625 -8.335938 6.421875 -11.296875 C 6.453125 -14.253906 6.46875 -17.988281 6.46875 -22.5 L 8.6875 -22.5 C 8.945312 -18.632812 9.671875 -15.023438 10.859375 -11.671875 C 12.054688 -8.328125 13.890625 -5.640625 16.359375 -3.609375 C 18.835938 -1.585938 22.140625 -0.578125 26.265625 -0.578125 C 28.390625 -0.578125 30.398438 -1.007812 32.296875 -1.875 C 34.203125 -2.75 35.765625 -4.132812 36.984375 -6.03125 C 38.203125 -7.9375 38.8125 -10.398438 38.8125 -13.421875 C 38.8125 -16.054688 38.179688 -18.351562 36.921875 -20.3125 C 35.671875 -22.28125 33.921875 -24.117188 31.671875 -25.828125 C 29.421875 -27.535156 26.78125 -29.289062 23.75 -31.09375 C 20.726562 -32.957031 17.894531 -34.851562 15.25 -36.78125 C 12.613281 -38.71875 10.503906 -40.957031 8.921875 -43.5 C 7.347656 -46.039062 6.5625 -49.113281 6.5625 -52.71875 C 6.5625 -56.519531 7.414062 -59.660156 9.125 -62.140625 C 10.832031 -64.617188 13.066406 -66.453125 15.828125 -67.640625 C 18.597656 -68.828125 21.5625 -69.421875 24.71875 -69.421875 Z M 24.71875 -69.421875 "/></g></g></g><g fill="#000000" fill-opacity="1"><g transform="translate(344.673503, 104.503028)"><g/></g></g><g clip-path="url(#aafff0955c)"><g transform="matrix(1, 0, 0, 1, 5, 98)"><g clip-path="url(#a9a95e411b)"><g fill="#000000" fill-opacity="1"><g transform="translate(0.572461, 60.849799)"><g><path d="M 25.609375 0 L 25.609375 -1.109375 C 26.867188 -1.179688 27.820312 -1.328125 28.46875 -1.546875 C 29.125 -1.773438 29.5625 -2.222656 29.78125 -2.890625 C 30.007812 -3.554688 30.125 -4.5625 30.125 -5.90625 L 30.125 -33.515625 C 30.125 -34.890625 30.007812 -35.898438 29.78125 -36.546875 C 29.5625 -37.191406 29.125 -37.632812 28.46875 -37.875 C 27.820312 -38.125 26.867188 -38.265625 25.609375 -38.296875 L 25.609375 -39.421875 C 26.460938 -39.378906 27.535156 -39.335938 28.828125 -39.296875 C 30.128906 -39.265625 31.410156 -39.25 32.671875 -39.25 C 34.117188 -39.25 35.472656 -39.265625 36.734375 -39.296875 C 38.003906 -39.335938 39.03125 -39.378906 39.8125 -39.421875 L 39.8125 -38.296875 C 38.539062 -38.265625 37.582031 -38.125 36.9375 -37.875 C 36.289062 -37.632812 35.851562 -37.191406 35.625 -36.546875 C 35.40625 -35.898438 35.296875 -34.890625 35.296875 -33.515625 L 35.296875 -5.90625 C 35.296875 -4.5625 35.40625 -3.554688 35.625 -2.890625 C 35.851562 -2.222656 36.289062 -1.773438 36.9375 -1.546875 C 37.582031 -1.328125 38.539062 -1.179688 39.8125 -1.109375 L 39.8125 0 C 39.03125 -0.0703125 38.003906 -0.117188 36.734375 -0.140625 C 35.472656 -0.160156 34.117188 -0.171875 32.671875 -0.171875 C 31.410156 -0.171875 30.128906 -0.160156 28.828125 -0.140625 C 27.535156 -0.117188 26.460938 -0.0703125 25.609375 0 Z M 2.34375 0 L 2.34375 -1.109375 C 3.601562 -1.179688 4.554688 -1.328125 5.203125 -1.546875 C 5.847656 -1.773438 6.28125 -2.222656 6.5 -2.890625 C 6.726562 -3.554688 6.84375 -4.5625 6.84375 -5.90625 L 6.84375 -33.515625 C 6.84375 -34.890625 6.726562 -35.898438 6.5 -36.546875 C 6.28125 -37.191406 5.847656 -37.632812 5.203125 -37.875 C 4.554688 -38.125 3.601562 -38.265625 2.34375 -38.296875 L 2.34375 -39.421875 C 3.113281 -39.378906 4.128906 -39.335938 5.390625 -39.296875 C 6.660156 -39.265625 8.019531 -39.25 9.46875 -39.25 C 10.757812 -39.25 12.046875 -39.265625 13.328125 -39.296875 C 14.609375 -39.335938 15.675781 -39.378906 16.53125 -39.421875 L 16.53125 -38.296875 C 15.269531 -38.265625 14.3125 -38.125 13.65625 -37.875 C 13.007812 -37.632812 12.578125 -37.191406 12.359375 -36.546875 C 12.140625 -35.898438 12.03125 -34.890625 12.03125 -33.515625 L 12.03125 -5.90625 C 12.03125 -4.5625 12.140625 -3.554688 12.359375 -2.890625 C 12.578125 -2.222656 13.007812 -1.773438 13.65625 -1.546875 C 14.3125 -1.328125 15.269531 -1.179688 16.53125 -1.109375 L 16.53125 0 C 15.675781 -0.0703125 14.609375 -0.117188 13.328125 -0.140625 C 12.046875 -0.160156 10.757812 -0.171875 9.46875 -0.171875 C 8.019531 -0.171875 6.660156 -0.160156 5.390625 -0.140625 C 4.128906 -0.117188 3.113281 -0.0703125 2.34375 0 Z M 10.078125 -19.265625 L 10.078125 -20.375 L 32.0625 -20.375 L 32.0625 -19.265625 Z M 10.078125 -19.265625 "/></g></g></g><g fill="#000000" fill-opacity="1"><g transform="translate(42.713518, 60.849799)"><g><path d="M 17.984375 -39.6875 L 31.5625 -4.671875 C 32.125 -3.265625 32.753906 -2.328125 33.453125 -1.859375 C 34.160156 -1.398438 34.8125 -1.148438 35.40625 -1.109375 L 35.40625 0 C 34.664062 -0.0703125 33.753906 -0.117188 32.671875 -0.140625 C 31.597656 -0.160156 30.523438 -0.171875 29.453125 -0.171875 C 28.003906 -0.171875 26.648438 -0.160156 25.390625 -0.140625 C 24.128906 -0.117188 23.109375 -0.0703125 22.328125 0 L 22.328125 -1.109375 C 24.210938 -1.179688 25.414062 -1.503906 25.9375 -2.078125 C 26.457031 -2.660156 26.347656 -3.898438 25.609375 -5.796875 L 15.25 -33.453125 L 16.140625 -34.1875 L 6.453125 -9.015625 C 5.859375 -7.535156 5.503906 -6.285156 5.390625 -5.265625 C 5.285156 -4.242188 5.390625 -3.4375 5.703125 -2.84375 C 6.015625 -2.25 6.550781 -1.820312 7.3125 -1.5625 C 8.082031 -1.300781 9.039062 -1.148438 10.1875 -1.109375 L 10.1875 0 C 9.144531 -0.0703125 8.054688 -0.117188 6.921875 -0.140625 C 5.796875 -0.160156 4.75 -0.171875 3.78125 -0.171875 C 2.851562 -0.171875 2.066406 -0.160156 1.421875 -0.140625 C 0.773438 -0.117188 0.171875 -0.0703125 -0.390625 0 L -0.390625 -1.109375 C 0.347656 -1.296875 1.109375 -1.734375 1.890625 -2.421875 C 2.671875 -3.109375 3.378906 -4.285156 4.015625 -5.953125 L 17.09375 -39.6875 C 17.238281 -39.6875 17.382812 -39.6875 17.53125 -39.6875 C 17.6875 -39.6875 17.835938 -39.6875 17.984375 -39.6875 Z M 24.78125 -16.03125 L 24.78125 -14.921875 L 8.1875 -14.921875 L 8.734375 -16.03125 Z M 24.78125 -16.03125 "/></g></g></g><g fill="#000000" fill-opacity="1"><g transform="translate(76.671291, 60.849799)"><g><path d="M 16.53125 -39.421875 L 16.53125 -38.296875 C 15.269531 -38.265625 14.3125 -38.125 13.65625 -37.875 C 13.007812 -37.632812 12.578125 -37.191406 12.359375 -36.546875 C 12.140625 -35.898438 12.03125 -34.890625 12.03125 -33.515625 L 12.03125 -5.90625 C 12.03125 -4.5625 12.140625 -3.554688 12.359375 -2.890625 C 12.578125 -2.222656 13.007812 -1.773438 13.65625 -1.546875 C 14.3125 -1.328125 15.269531 -1.179688 16.53125 -1.109375 L 16.53125 0 C 15.675781 -0.0703125 14.609375 -0.117188 13.328125 -0.140625 C 12.046875 -0.160156 10.757812 -0.171875 9.46875 -0.171875 C 8.019531 -0.171875 6.660156 -0.160156 5.390625 -0.140625 C 4.128906 -0.117188 3.113281 -0.0703125 2.34375 0 L 2.34375 -1.109375 C 3.601562 -1.179688 4.554688 -1.328125 5.203125 -1.546875 C 5.847656 -1.773438 6.28125 -2.222656 6.5 -2.890625 C 6.726562 -3.554688 6.84375 -4.5625 6.84375 -5.90625 L 6.84375 -33.515625 C 6.84375 -34.890625 6.726562 -35.898438 6.5 -36.546875 C 6.28125 -37.191406 5.847656 -37.632812 5.203125 -37.875 C 4.554688 -38.125 3.601562 -38.265625 2.34375 -38.296875 L 2.34375 -39.421875 C 3.113281 -39.378906 4.128906 -39.335938 5.390625 -39.296875 C 6.660156 -39.265625 8.019531 -39.25 9.46875 -39.25 C 10.757812 -39.25 12.046875 -39.265625 13.328125 -39.296875 C 14.609375 -39.335938 15.675781 -39.378906 16.53125 -39.421875 Z M 16.53125 -39.421875 "/></g></g></g><g fill="#000000" fill-opacity="1"><g transform="translate(95.542916, 60.849799)"><g><path d="M 2.34375 -39.421875 C 3.113281 -39.378906 4.128906 -39.335938 5.390625 -39.296875 C 6.660156 -39.265625 7.90625 -39.25 9.125 -39.25 C 10.875 -39.25 12.546875 -39.265625 14.140625 -39.296875 C 15.734375 -39.335938 16.863281 -39.359375 17.53125 -39.359375 C 20.539062 -39.359375 23.035156 -38.929688 25.015625 -38.078125 C 27.003906 -37.222656 28.488281 -36.0625 29.46875 -34.59375 C 30.457031 -33.132812 30.953125 -31.492188 30.953125 -29.671875 C 30.953125 -28.554688 30.726562 -27.367188 30.28125 -26.109375 C 29.84375 -24.847656 29.070312 -23.660156 27.96875 -22.546875 C 26.875 -21.429688 25.378906 -20.507812 23.484375 -19.78125 C 21.597656 -19.0625 19.207031 -18.703125 16.3125 -18.703125 L 10.96875 -18.703125 L 10.96875 -19.8125 L 15.75 -19.8125 C 18.382812 -19.8125 20.398438 -20.226562 21.796875 -21.0625 C 23.191406 -21.90625 24.140625 -23.019531 24.640625 -24.40625 C 25.140625 -25.800781 25.390625 -27.351562 25.390625 -29.0625 C 25.390625 -31.988281 24.691406 -34.257812 23.296875 -35.875 C 21.910156 -37.488281 19.523438 -38.296875 16.140625 -38.296875 C 14.429688 -38.296875 13.316406 -37.976562 12.796875 -37.34375 C 12.285156 -36.71875 12.03125 -35.441406 12.03125 -33.515625 L 12.03125 -5.90625 C 12.03125 -4.5625 12.140625 -3.554688 12.359375 -2.890625 C 12.578125 -2.222656 13.007812 -1.773438 13.65625 -1.546875 C 14.3125 -1.328125 15.269531 -1.179688 16.53125 -1.109375 L 16.53125 0 C 15.675781 -0.0703125 14.609375 -0.117188 13.328125 -0.140625 C 12.046875 -0.160156 10.757812 -0.171875 9.46875 -0.171875 C 8.019531 -0.171875 6.660156 -0.160156 5.390625 -0.140625 C 4.128906 -0.117188 3.113281 -0.0703125 2.34375 0 L 2.34375 -1.109375 C 3.601562 -1.179688 4.554688 -1.328125 5.203125 -1.546875 C 5.847656 -1.773438 6.28125 -2.222656 6.5 -2.890625 C 6.726562 -3.554688 6.84375 -4.5625 6.84375 -5.90625 L 6.84375 -33.515625 C 6.84375 -34.890625 6.726562 -35.898438 6.5 -36.546875 C 6.28125 -37.191406 5.847656 -37.632812 5.203125 -37.875 C 4.554688 -38.125 3.601562 -38.265625 2.34375 -38.296875 Z M 11.1875 -19.65625 C 13.195312 -19.582031 14.773438 -19.5 15.921875 -19.40625 C 17.066406 -19.3125 18 -19.226562 18.71875 -19.15625 C 19.445312 -19.082031 20.148438 -18.988281 20.828125 -18.875 C 23.304688 -18.46875 25.09375 -17.710938 26.1875 -16.609375 C 27.289062 -15.515625 28.097656 -13.820312 28.609375 -11.53125 L 30 -5.84375 C 30.375 -4.207031 30.753906 -3.023438 31.140625 -2.296875 C 31.535156 -1.578125 32.140625 -1.238281 32.953125 -1.28125 C 33.585938 -1.320312 34.117188 -1.523438 34.546875 -1.890625 C 34.972656 -2.265625 35.425781 -2.765625 35.90625 -3.390625 L 36.75 -2.78125 C 35.96875 -1.632812 35.15625 -0.753906 34.3125 -0.140625 C 33.476562 0.472656 32.300781 0.78125 30.78125 0.78125 C 29.414062 0.78125 28.210938 0.375 27.171875 -0.4375 C 26.128906 -1.257812 25.347656 -2.859375 24.828125 -5.234375 L 23.609375 -10.796875 C 23.273438 -12.390625 22.894531 -13.769531 22.46875 -14.9375 C 22.039062 -16.113281 21.445312 -17.035156 20.6875 -17.703125 C 19.925781 -18.367188 18.800781 -18.703125 17.3125 -18.703125 L 11.296875 -18.703125 Z M 11.1875 -19.65625 "/></g></g></g><g fill="#000000" fill-opacity="1"><g transform="translate(130.948075, 60.849799)"><g/></g></g><g fill="#000000" fill-opacity="1"><g transform="translate(144.809526, 60.849799)"><g><path d="M 14.25 -40.03125 C 16.101562 -40.03125 17.515625 -39.816406 18.484375 -39.390625 C 19.453125 -38.960938 20.304688 -38.488281 21.046875 -37.96875 C 21.492188 -37.707031 21.851562 -37.507812 22.125 -37.375 C 22.40625 -37.25 22.675781 -37.1875 22.9375 -37.1875 C 23.3125 -37.1875 23.582031 -37.390625 23.75 -37.796875 C 23.914062 -38.203125 24.050781 -38.816406 24.15625 -39.640625 L 25.4375 -39.640625 C 25.40625 -39.003906 25.359375 -38.25 25.296875 -37.375 C 25.242188 -36.507812 25.207031 -35.359375 25.1875 -33.921875 C 25.164062 -32.492188 25.15625 -30.613281 25.15625 -28.28125 L 23.890625 -28.28125 C 23.773438 -30.0625 23.382812 -31.769531 22.71875 -33.40625 C 22.050781 -35.039062 21.078125 -36.375 19.796875 -37.40625 C 18.515625 -38.445312 16.832031 -38.96875 14.75 -38.96875 C 12.78125 -38.96875 11.15625 -38.375 9.875 -37.1875 C 8.601562 -36 7.96875 -34.441406 7.96875 -32.515625 C 7.96875 -30.835938 8.390625 -29.429688 9.234375 -28.296875 C 10.085938 -27.171875 11.226562 -26.15625 12.65625 -25.25 C 14.09375 -24.34375 15.644531 -23.367188 17.3125 -22.328125 C 19.238281 -21.140625 20.953125 -19.957031 22.453125 -18.78125 C 23.960938 -17.613281 25.148438 -16.320312 26.015625 -14.90625 C 26.890625 -13.5 27.328125 -11.796875 27.328125 -9.796875 C 27.328125 -7.421875 26.789062 -5.453125 25.71875 -3.890625 C 24.644531 -2.335938 23.21875 -1.171875 21.4375 -0.390625 C 19.65625 0.390625 17.6875 0.78125 15.53125 0.78125 C 13.5625 0.78125 12 0.554688 10.84375 0.109375 C 9.695312 -0.335938 8.71875 -0.800781 7.90625 -1.28125 C 7.09375 -1.800781 6.460938 -2.0625 6.015625 -2.0625 C 5.640625 -2.0625 5.367188 -1.851562 5.203125 -1.4375 C 5.035156 -1.03125 4.894531 -0.421875 4.78125 0.390625 L 3.5 0.390625 C 3.582031 -0.390625 3.628906 -1.304688 3.640625 -2.359375 C 3.660156 -3.421875 3.679688 -4.804688 3.703125 -6.515625 C 3.722656 -8.222656 3.734375 -10.375 3.734375 -12.96875 L 5.015625 -12.96875 C 5.160156 -10.738281 5.578125 -8.660156 6.265625 -6.734375 C 6.953125 -4.804688 8.007812 -3.253906 9.4375 -2.078125 C 10.863281 -0.910156 12.765625 -0.328125 15.140625 -0.328125 C 16.367188 -0.328125 17.53125 -0.578125 18.625 -1.078125 C 19.71875 -1.585938 20.613281 -2.390625 21.3125 -3.484375 C 22.019531 -4.578125 22.375 -5.992188 22.375 -7.734375 C 22.375 -9.253906 22.007812 -10.582031 21.28125 -11.71875 C 20.5625 -12.851562 19.550781 -13.910156 18.25 -14.890625 C 16.957031 -15.878906 15.4375 -16.890625 13.6875 -17.921875 C 11.945312 -19.003906 10.316406 -20.097656 8.796875 -21.203125 C 7.273438 -22.316406 6.054688 -23.609375 5.140625 -25.078125 C 4.234375 -26.546875 3.78125 -28.316406 3.78125 -30.390625 C 3.78125 -32.585938 4.269531 -34.398438 5.25 -35.828125 C 6.238281 -37.253906 7.53125 -38.3125 9.125 -39 C 10.726562 -39.6875 12.4375 -40.03125 14.25 -40.03125 Z M 14.25 -40.03125 "/></g></g></g><g fill="#000000" fill-opacity="1"><g transform="translate(174.870522, 60.849799)"><g><path d="M 32.953125 -39.421875 C 32.804688 -38.003906 32.703125 -36.632812 32.640625 -35.3125 C 32.585938 -34 32.5625 -32.992188 32.5625 -32.296875 C 32.5625 -31.398438 32.578125 -30.5625 32.609375 -29.78125 C 32.648438 -29 32.691406 -28.3125 32.734375 -27.71875 L 31.453125 -27.71875 C 31.191406 -30.320312 30.835938 -32.375 30.390625 -33.875 C 29.953125 -35.375 29.175781 -36.457031 28.0625 -37.125 C 26.945312 -37.800781 25.21875 -38.140625 22.875 -38.140625 L 19.875 -38.140625 L 19.875 -6.453125 C 19.875 -4.972656 20.007812 -3.859375 20.28125 -3.109375 C 20.5625 -2.367188 21.109375 -1.867188 21.921875 -1.609375 C 22.742188 -1.347656 23.9375 -1.179688 25.5 -1.109375 L 25.5 0 C 24.53125 -0.0703125 23.300781 -0.117188 21.8125 -0.140625 C 20.332031 -0.160156 18.832031 -0.171875 17.3125 -0.171875 C 15.644531 -0.171875 14.078125 -0.160156 12.609375 -0.140625 C 11.140625 -0.117188 9.960938 -0.0703125 9.078125 0 L 9.078125 -1.109375 C 10.628906 -1.179688 11.8125 -1.347656 12.625 -1.609375 C 13.445312 -1.867188 14 -2.367188 14.28125 -3.109375 C 14.5625 -3.859375 14.703125 -4.972656 14.703125 -6.453125 L 14.703125 -38.140625 L 11.6875 -38.140625 C 9.382812 -38.140625 7.664062 -37.800781 6.53125 -37.125 C 5.40625 -36.457031 4.617188 -35.375 4.171875 -33.875 C 3.722656 -32.375 3.375 -30.320312 3.125 -27.71875 L 1.84375 -27.71875 C 1.914062 -28.3125 1.957031 -29 1.96875 -29.78125 C 1.988281 -30.5625 2 -31.398438 2 -32.296875 C 2 -32.992188 1.972656 -34 1.921875 -35.3125 C 1.867188 -36.632812 1.765625 -38.003906 1.609375 -39.421875 C 3.171875 -39.378906 4.867188 -39.335938 6.703125 -39.296875 C 8.546875 -39.265625 10.394531 -39.25 12.25 -39.25 C 14.101562 -39.25 15.789062 -39.25 17.3125 -39.25 C 18.832031 -39.25 20.507812 -39.25 22.34375 -39.25 C 24.1875 -39.25 26.035156 -39.265625 27.890625 -39.296875 C 29.742188 -39.335938 31.429688 -39.378906 32.953125 -39.421875 Z M 32.953125 -39.421875 "/></g></g></g><g fill="#000000" fill-opacity="1"><g transform="translate(209.440662, 60.849799)"><g><path d="M 36.46875 -39.421875 L 36.46875 -38.296875 C 35.207031 -38.265625 34.25 -38.082031 33.59375 -37.75 C 32.945312 -37.414062 32.507812 -36.875 32.28125 -36.125 C 32.0625 -35.382812 31.953125 -34.328125 31.953125 -32.953125 L 31.953125 -16.203125 C 31.953125 -13.597656 31.785156 -11.332031 31.453125 -9.40625 C 31.117188 -7.476562 30.523438 -5.804688 29.671875 -4.390625 C 28.742188 -2.835938 27.390625 -1.585938 25.609375 -0.640625 C 23.828125 0.304688 21.785156 0.78125 19.484375 0.78125 C 17.703125 0.78125 16.003906 0.566406 14.390625 0.140625 C 12.773438 -0.285156 11.351562 -1.078125 10.125 -2.234375 C 9.050781 -3.265625 8.207031 -4.351562 7.59375 -5.5 C 6.988281 -6.65625 6.570312 -8.066406 6.34375 -9.734375 C 6.125 -11.410156 6.015625 -13.507812 6.015625 -16.03125 L 6.015625 -33.515625 C 6.015625 -34.890625 5.898438 -35.898438 5.671875 -36.546875 C 5.453125 -37.191406 5.015625 -37.632812 4.359375 -37.875 C 3.710938 -38.125 2.757812 -38.265625 1.5 -38.296875 L 1.5 -39.421875 C 2.28125 -39.378906 3.300781 -39.335938 4.5625 -39.296875 C 5.820312 -39.265625 7.175781 -39.25 8.625 -39.25 C 9.925781 -39.25 11.21875 -39.265625 12.5 -39.296875 C 13.78125 -39.335938 14.847656 -39.378906 15.703125 -39.421875 L 15.703125 -38.296875 C 14.441406 -38.265625 13.484375 -38.125 12.828125 -37.875 C 12.179688 -37.632812 11.742188 -37.191406 11.515625 -36.546875 C 11.296875 -35.898438 11.1875 -34.890625 11.1875 -33.515625 L 11.1875 -15.09375 C 11.1875 -13.195312 11.28125 -11.40625 11.46875 -9.71875 C 11.65625 -8.03125 12.035156 -6.546875 12.609375 -5.265625 C 13.179688 -3.984375 14.0625 -2.976562 15.25 -2.25 C 16.4375 -1.53125 18.015625 -1.171875 19.984375 -1.171875 C 22.804688 -1.171875 24.988281 -1.789062 26.53125 -3.03125 C 28.070312 -4.28125 29.144531 -6 29.75 -8.1875 C 30.363281 -10.375 30.671875 -12.84375 30.671875 -15.59375 L 30.671875 -32.953125 C 30.671875 -34.328125 30.515625 -35.382812 30.203125 -36.125 C 29.890625 -36.875 29.359375 -37.414062 28.609375 -37.75 C 27.867188 -38.082031 26.867188 -38.265625 25.609375 -38.296875 L 25.609375 -39.421875 C 26.273438 -39.378906 27.15625 -39.335938 28.25 -39.296875 C 29.34375 -39.265625 30.351562 -39.25 31.28125 -39.25 C 32.25 -39.25 33.207031 -39.265625 34.15625 -39.296875 C 35.101562 -39.335938 35.875 -39.378906 36.46875 -39.421875 Z M 36.46875 -39.421875 "/></g></g></g><g fill="#000000" fill-opacity="1"><g transform="translate(247.406587, 60.849799)"><g><path d="M 17.53125 -39.421875 C 24.175781 -39.421875 29.113281 -37.757812 32.34375 -34.4375 C 35.570312 -31.113281 37.1875 -26.351562 37.1875 -20.15625 C 37.1875 -16.101562 36.394531 -12.566406 34.8125 -9.546875 C 33.238281 -6.523438 30.945312 -4.175781 27.9375 -2.5 C 24.9375 -0.832031 21.300781 0 17.03125 0 C 16.476562 0 15.738281 -0.015625 14.8125 -0.046875 C 13.882812 -0.0859375 12.925781 -0.117188 11.9375 -0.140625 C 10.957031 -0.160156 10.054688 -0.171875 9.234375 -0.171875 C 7.941406 -0.171875 6.660156 -0.160156 5.390625 -0.140625 C 4.128906 -0.117188 3.113281 -0.0703125 2.34375 0 L 2.34375 -1.109375 C 3.601562 -1.179688 4.554688 -1.328125 5.203125 -1.546875 C 5.847656 -1.773438 6.28125 -2.222656 6.5 -2.890625 C 6.726562 -3.554688 6.84375 -4.5625 6.84375 -5.90625 L 6.84375 -33.515625 C 6.84375 -34.890625 6.726562 -35.898438 6.5 -36.546875 C 6.28125 -37.191406 5.847656 -37.632812 5.203125 -37.875 C 4.554688 -38.125 3.601562 -38.265625 2.34375 -38.296875 L 2.34375 -39.421875 C 3.113281 -39.378906 4.128906 -39.328125 5.390625 -39.265625 C 6.660156 -39.210938 7.90625 -39.207031 9.125 -39.25 C 10.425781 -39.28125 11.894531 -39.316406 13.53125 -39.359375 C 15.164062 -39.398438 16.5 -39.421875 17.53125 -39.421875 Z M 16.140625 -38.40625 C 14.429688 -38.40625 13.316406 -38.085938 12.796875 -37.453125 C 12.285156 -36.828125 12.03125 -35.550781 12.03125 -33.625 L 12.03125 -5.796875 C 12.03125 -3.859375 12.296875 -2.570312 12.828125 -1.9375 C 13.367188 -1.3125 14.492188 -1 16.203125 -1 C 20.242188 -1 23.378906 -1.734375 25.609375 -3.203125 C 27.835938 -4.671875 29.394531 -6.8125 30.28125 -9.625 C 31.175781 -12.445312 31.625 -15.882812 31.625 -19.9375 C 31.625 -24.09375 31.128906 -27.53125 30.140625 -30.25 C 29.160156 -32.976562 27.546875 -35.019531 25.296875 -36.375 C 23.054688 -37.726562 20.003906 -38.40625 16.140625 -38.40625 Z M 16.140625 -38.40625 "/></g></g></g><g fill="#000000" fill-opacity="1"><g transform="translate(287.153895, 60.849799)"><g><path d="M 16.53125 -39.421875 L 16.53125 -38.296875 C 15.269531 -38.265625 14.3125 -38.125 13.65625 -37.875 C 13.007812 -37.632812 12.578125 -37.191406 12.359375 -36.546875 C 12.140625 -35.898438 12.03125 -34.890625 12.03125 -33.515625 L 12.03125 -5.90625 C 12.03125 -4.5625 12.140625 -3.554688 12.359375 -2.890625 C 12.578125 -2.222656 13.007812 -1.773438 13.65625 -1.546875 C 14.3125 -1.328125 15.269531 -1.179688 16.53125 -1.109375 L 16.53125 0 C 15.675781 -0.0703125 14.609375 -0.117188 13.328125 -0.140625 C 12.046875 -0.160156 10.757812 -0.171875 9.46875 -0.171875 C 8.019531 -0.171875 6.660156 -0.160156 5.390625 -0.140625 C 4.128906 -0.117188 3.113281 -0.0703125 2.34375 0 L 2.34375 -1.109375 C 3.601562 -1.179688 4.554688 -1.328125 5.203125 -1.546875 C 5.847656 -1.773438 6.28125 -2.222656 6.5 -2.890625 C 6.726562 -3.554688 6.84375 -4.5625 6.84375 -5.90625 L 6.84375 -33.515625 C 6.84375 -34.890625 6.726562 -35.898438 6.5 -36.546875 C 6.28125 -37.191406 5.847656 -37.632812 5.203125 -37.875 C 4.554688 -38.125 3.601562 -38.265625 2.34375 -38.296875 L 2.34375 -39.421875 C 3.113281 -39.378906 4.128906 -39.335938 5.390625 -39.296875 C 6.660156 -39.265625 8.019531 -39.25 9.46875 -39.25 C 10.757812 -39.25 12.046875 -39.265625 13.328125 -39.296875 C 14.609375 -39.335938 15.675781 -39.378906 16.53125 -39.421875 Z M 16.53125 -39.421875 "/></g></g></g><g fill="#000000" fill-opacity="1"><g transform="translate(305.580155, 60.849799)"><g><path d="M 20.65625 -40.1875 C 24.175781 -40.1875 27.265625 -39.390625 29.921875 -37.796875 C 32.578125 -36.203125 34.632812 -33.910156 36.09375 -30.921875 C 37.5625 -27.929688 38.296875 -24.304688 38.296875 -20.046875 C 38.296875 -15.890625 37.546875 -12.25 36.046875 -9.125 C 34.546875 -6.007812 32.457031 -3.578125 29.78125 -1.828125 C 27.113281 -0.0859375 24.050781 0.78125 20.59375 0.78125 C 17.070312 0.78125 13.984375 -0.015625 11.328125 -1.609375 C 8.671875 -3.210938 6.609375 -5.515625 5.140625 -8.515625 C 3.679688 -11.523438 2.953125 -15.144531 2.953125 -19.375 C 2.953125 -23.53125 3.710938 -27.164062 5.234375 -30.28125 C 6.753906 -33.40625 8.84375 -35.835938 11.5 -37.578125 C 14.15625 -39.316406 17.207031 -40.1875 20.65625 -40.1875 Z M 20.4375 -39.1875 C 18.019531 -39.1875 15.921875 -38.351562 14.140625 -36.6875 C 12.359375 -35.019531 10.972656 -32.71875 9.984375 -29.78125 C 9.003906 -26.851562 8.515625 -23.457031 8.515625 -19.59375 C 8.515625 -15.65625 9.0625 -12.226562 10.15625 -9.3125 C 11.25 -6.40625 12.734375 -4.160156 14.609375 -2.578125 C 16.484375 -1.003906 18.554688 -0.21875 20.828125 -0.21875 C 23.234375 -0.21875 25.328125 -1.050781 27.109375 -2.71875 C 28.890625 -4.394531 30.269531 -6.707031 31.25 -9.65625 C 32.238281 -12.601562 32.734375 -15.988281 32.734375 -19.8125 C 32.734375 -23.789062 32.1875 -27.222656 31.09375 -30.109375 C 30 -33.003906 28.523438 -35.238281 26.671875 -36.8125 C 24.816406 -38.394531 22.738281 -39.1875 20.4375 -39.1875 Z M 20.4375 -39.1875 "/></g></g></g></g></g></g></g></g></svg>